<svg width="1024" height="1024" viewBox="0 0 1024 1024" fill="none" xmlns="http://www.w3.org/2000/svg">
<circle cx="512" cy="512" r="478" fill="white"/>
<path fill-rule="evenodd" clip-rule="evenodd" d="M512 1024C794.77 1024 1024 794.77 1024 512C1024 229.23 794.77 0 512 0C229.23 0 0 229.23 0 512C0 794.77 229.23 1024 512 1024ZM693.563 360.132C720.152 332.028 753.853 311.803 791.017 301.646C807.616 296.575 825.288 296.279 842.045 300.792C858.802 305.304 873.979 314.446 885.868 327.189C940.508 389.733 927.735 538.455 845.893 769.295C843.76 775.373 839.323 780.347 833.556 783.123C827.789 785.898 821.166 786.248 815.144 784.096C809.121 781.943 804.193 777.464 801.442 771.644C798.692 765.825 798.345 759.14 800.478 753.062C903.136 463.497 869.311 381.378 849.915 359.416C843.797 353.361 836.164 349.097 827.832 347.079C819.5 345.061 810.781 345.365 802.607 347.957C764.353 359.451 731.033 383.579 707.992 416.47C741.817 553.255 766.653 709.616 724.313 771.921C719.284 779.719 712.601 786.292 704.747 791.164C696.892 796.035 688.063 799.084 678.898 800.09C671.66 800.752 664.372 799.595 657.685 796.72C650.998 793.846 645.121 789.345 640.579 783.618C594.927 728.952 618.581 530.1 642.235 442.49C645.554 430.489 650.321 418.944 656.427 408.115C654.7 401.318 652.847 394.394 650.96 387.343C650.263 384.736 649.56 382.111 648.858 379.468C605.335 221.198 535.556 100.407 510.72 100.407C491.56 112.581 441.414 219.766 556.845 536.068C559.085 541.957 558.925 548.502 556.398 554.272C553.872 560.042 549.185 564.569 543.362 566.862C537.649 569.356 531.192 569.476 525.391 567.197C519.591 564.918 514.914 560.423 512.376 554.688C393.397 294.007 336.865 218.333 315.576 196.61C307.298 236.715 302.33 356.074 444.253 618.664C447.337 624.145 448.147 630.635 446.508 636.717C444.868 642.8 440.911 647.981 435.501 651.13C430.22 654.443 423.859 655.523 417.794 654.138C411.729 652.753 406.449 649.014 403.095 643.729C334.973 540.603 244.615 404.056 208.425 366.816C204.404 405.25 216.467 519.357 339.467 707.706C343.168 712.929 344.662 719.422 343.619 725.757C342.577 732.092 339.084 737.749 333.908 741.485C328.733 745.22 322.299 746.728 316.022 745.675C309.745 744.623 304.139 741.098 300.438 735.875C212.919 622.722 167.977 595.986 152.366 589.54C154.258 619.38 186.9 717.255 261.409 798.658C311.319 853.085 393.634 913.72 502.914 892.235C506.02 891.624 509.216 891.636 512.317 892.271C515.419 892.906 518.366 894.151 520.991 895.936C523.616 897.72 525.866 900.009 527.615 902.671C529.363 905.333 530.575 908.317 531.18 911.452C531.786 914.587 531.774 917.812 531.145 920.942C530.516 924.072 529.282 927.047 527.514 929.695C525.746 932.344 523.478 934.616 520.84 936.38C518.202 938.145 515.245 939.368 512.139 939.979C494.048 943.445 475.677 945.203 457.262 945.231C325.748 945.231 235.154 849.505 189.975 787.199C134.152 711.287 88.9735 599.328 110.498 559.462C113.645 553.696 118.172 548.818 123.668 545.274C129.164 541.729 135.452 539.631 141.958 539.171C166.117 540.645 189.095 550.223 207.242 566.385C154.258 444.638 152.366 362.997 169.396 330.531C172.117 324.635 176.367 319.591 181.698 315.934C187.028 312.278 193.239 310.145 199.673 309.763C219.779 308.808 237.283 318.834 294.288 397.611C246.981 251.754 266.377 183.958 276.075 162.235C278.679 155.752 283.12 150.188 288.842 146.239C294.564 142.29 301.313 140.132 308.244 140.034L308.442 140.037C322.958 140.274 354.302 140.785 443.307 305.227C420.126 159.609 446.618 82.7414 487.303 58.8696C493.875 55.0549 501.259 52.8902 508.833 52.5579C516.408 52.2255 523.95 53.7353 530.826 56.9599C595.873 84.1738 662.577 250.322 693.563 360.132ZM676.533 751.869C679.951 750.612 682.805 748.154 684.575 744.946C693.563 732.294 714.852 680.015 678.188 501.692C658.792 604.818 658.792 730.623 676.533 751.869Z" fill="url(#paint0_linear)"/>
<defs>
<linearGradient id="paint0_linear" x1="0" y1="538.256" x2="1024" y2="538.256" gradientUnits="userSpaceOnUse">
<stop stop-color="#2D6DD0"/>
<stop offset="1" stop-color="#6C139C"/>
</linearGradient>
</defs>
</svg>
