<svg width="1024" height="1024" viewBox="0 0 1024 1024" fill="none" xmlns="http://www.w3.org/2000/svg">
<circle cx="512" cy="512" r="478" fill="white"/>
<path fill-rule="evenodd" clip-rule="evenodd" d="M512 1024C794.77 1024 1024 794.77 1024 512C1024 229.23 794.77 0 512 0C229.23 0 0 229.23 0 512C0 794.77 229.23 1024 512 1024ZM660.561 385.549C682.317 362.567 709.892 346.028 740.301 337.723C753.883 333.576 768.343 333.334 782.054 337.024C795.765 340.714 808.183 348.19 817.911 358.61C862.62 409.754 852.169 531.368 785.203 720.133C783.458 725.103 779.826 729.17 775.108 731.44C770.389 733.71 764.97 733.996 760.042 732.236C755.115 730.475 751.082 726.813 748.831 722.054C746.581 717.295 746.297 711.829 748.043 706.859C832.04 470.073 804.364 402.922 788.493 384.963C783.487 380.012 777.242 376.525 770.424 374.875C763.607 373.225 756.473 373.473 749.784 375.593C718.484 384.992 691.22 404.722 672.367 431.617C700.044 543.471 720.366 671.331 685.722 722.28C681.607 728.657 676.139 734.031 669.712 738.015C663.285 741.999 656.061 744.492 648.562 745.314C642.639 745.856 636.675 744.909 631.204 742.559C625.733 740.209 620.924 736.528 617.208 731.845C579.854 687.143 599.208 524.536 618.562 452.895C621.279 443.081 625.179 433.641 630.175 424.785C628.762 419.228 627.246 413.567 625.703 407.802C625.131 405.669 624.557 403.522 623.982 401.36C588.37 271.939 531.275 173.164 510.953 173.164C495.276 183.12 454.244 270.767 548.693 529.416C550.527 534.232 550.395 539.584 548.328 544.302C546.261 549.021 542.426 552.722 537.661 554.598C532.987 556.637 527.703 556.735 522.957 554.871C518.211 553.008 514.385 549.332 512.307 544.642C414.955 331.477 368.699 269.596 351.28 251.832C344.506 284.627 340.441 382.23 456.567 596.957C459.09 601.44 459.753 606.747 458.412 611.72C457.07 616.694 453.833 620.93 449.406 623.505C445.085 626.214 439.88 627.098 434.917 625.966C429.955 624.833 425.634 621.775 422.891 617.454C367.15 533.125 293.217 421.467 263.605 391.015C260.315 422.443 270.185 515.752 370.828 669.769C373.856 674.041 375.078 679.35 374.225 684.53C373.372 689.711 370.514 694.337 366.279 697.391C362.044 700.446 356.78 701.678 351.644 700.818C346.508 699.958 341.921 697.075 338.893 692.804C267.282 600.276 230.509 578.413 217.735 573.142C219.283 597.543 245.992 677.578 306.958 744.143C347.796 788.65 415.149 838.233 504.566 820.664C507.107 820.164 509.722 820.174 512.259 820.693C514.797 821.213 517.209 822.231 519.357 823.69C521.504 825.149 523.346 827.021 524.776 829.198C526.207 831.375 527.198 833.815 527.694 836.378C528.19 838.942 528.18 841.579 527.665 844.138C527.15 846.698 526.141 849.13 524.694 851.296C523.247 853.462 521.392 855.32 519.233 856.763C517.075 858.206 514.655 859.206 512.114 859.705C497.311 862.54 482.279 863.977 467.212 864C359.602 864 285.475 785.722 248.508 734.773C202.832 672.698 165.866 581.146 183.478 548.546C186.052 543.831 189.757 539.843 194.254 536.944C198.751 534.046 203.896 532.33 209.219 531.954C228.987 533.159 247.788 540.992 262.637 554.207C219.283 454.652 217.735 387.891 231.67 361.343C233.896 356.521 237.374 352.397 241.736 349.407C246.097 346.417 251.179 344.673 256.444 344.36C272.895 343.579 287.217 351.778 333.861 416.196C295.152 296.925 311.023 241.486 318.958 223.723C321.089 218.421 324.723 213.871 329.405 210.642C334.087 207.413 339.609 205.648 345.28 205.568L345.442 205.571C357.319 205.765 382.966 206.183 455.793 340.651C436.826 221.575 458.502 158.719 491.792 139.198C497.169 136.079 503.211 134.309 509.409 134.037C515.607 133.765 521.778 135 527.404 137.636C580.628 159.89 635.207 295.754 660.561 385.549ZM646.626 705.883C649.423 704.854 651.759 702.845 653.207 700.222C660.561 689.876 677.98 647.125 647.981 501.306C632.11 585.635 632.11 688.509 646.626 705.883Z" fill="url(#paint0_linear)"/>
<defs>
<linearGradient id="paint0_linear" x1="0" y1="538.256" x2="1024" y2="538.256" gradientUnits="userSpaceOnUse">
<stop stop-color="#2D6DD0"/>
<stop offset="1" stop-color="#6C139C"/>
</linearGradient>
</defs>
</svg>
